<svg width="118" height="20" viewBox="0 0 118 20" fill="none" xmlns="http://www.w3.org/2000/svg">
<path d="M0.95051 19.5V18.2287H1.14826C1.86394 18.2287 2.37245 18.0592 2.67378 17.7202C2.99396 17.3624 3.31413 16.7315 3.6343 15.8274L8.66287 0.854736H9.73638L14.765 15.8274C14.9345 16.2795 15.0757 16.6561 15.1887 16.9575C15.3205 17.2588 15.4712 17.5036 15.6407 17.692C15.8291 17.8803 16.0551 18.0216 16.3187 18.1157C16.5824 18.1911 16.9308 18.2287 17.364 18.2287H17.4487V19.5H11.1207V18.2287H11.3467C12.2695 18.2287 12.8063 18.0592 12.9569 17.7202C13.1264 17.3624 13.0511 16.7315 12.7309 15.8274L12.0812 13.8499H5.47057L4.79256 15.8274C4.47239 16.7315 4.39706 17.3624 4.56656 17.7202C4.73606 18.0592 5.28224 18.2287 6.20508 18.2287H6.40284V19.5H0.95051ZM8.77587 4.04703L5.89433 12.5787H11.6574L8.77587 4.04703ZM34.2749 15.8274V16.3925C34.2749 17.3906 34.096 18.2287 33.7382 18.9067C33.3992 19.5848 32.8248 19.9238 32.0149 19.9238C31.1862 19.9238 30.5365 19.5471 30.0656 18.7937C29.6136 18.0404 29.284 16.9575 29.0769 15.5449C28.945 14.6974 28.7944 14.0006 28.6249 13.4544C28.4742 12.9082 28.2764 12.4751 28.0316 12.1549C27.7868 11.8347 27.4948 11.6181 27.1558 11.5051C26.8168 11.3733 26.4025 11.3074 25.9128 11.3074H22.9748V15.8274C22.9748 16.3171 23.003 16.722 23.0595 17.0422C23.1349 17.3436 23.2573 17.5884 23.4268 17.7767C23.5963 17.9462 23.8317 18.0686 24.1331 18.144C24.4344 18.2005 24.8111 18.2287 25.2631 18.2287H25.4891V19.5H18.5395V18.2287H18.7372C19.2081 18.2287 19.5847 18.2005 19.8672 18.144C20.1686 18.0686 20.404 17.9462 20.5735 17.7767C20.743 17.5884 20.856 17.3436 20.9125 17.0422C20.9878 16.722 21.0255 16.3171 21.0255 15.8274V4.80979C21.0255 4.32012 20.9878 3.92461 20.9125 3.62327C20.856 3.3031 20.743 3.05827 20.5735 2.88877C20.404 2.70043 20.1686 2.57801 19.8672 2.52151C19.5847 2.44618 19.2081 2.40851 18.7372 2.40851H18.5395V1.13724H25.9128C28.041 1.13724 29.623 1.57041 30.6589 2.43676C31.6947 3.3031 32.2127 4.51787 32.2127 6.08106C32.2127 7.00391 32.0055 7.74783 31.5912 8.31284C31.1768 8.87785 30.7154 9.32044 30.2069 9.64061C29.623 10.0173 28.9545 10.2904 28.2011 10.4599V10.6011C28.5778 10.7141 28.9262 10.8554 29.2464 11.0249C29.5854 11.1944 29.8773 11.4392 30.1221 11.7594C30.3858 12.0796 30.6118 12.4939 30.8001 13.0024C30.9885 13.4921 31.1392 14.1042 31.2522 14.8387C31.4028 15.7992 31.5535 16.609 31.7042 17.2682C31.8737 17.9086 32.1185 18.2287 32.4387 18.2287C32.7023 18.2287 32.9095 18.0781 33.0602 17.7767C33.2297 17.4754 33.3144 16.9669 33.3144 16.2512V15.8274H34.2749ZM25.9128 9.89486C27.2688 9.89486 28.2576 9.56528 28.8791 8.9061C29.5195 8.22809 29.8396 7.28641 29.8396 6.08106C29.8396 3.72686 28.5307 2.54976 25.9128 2.54976H25.2631C24.8111 2.54976 24.4344 2.57801 24.1331 2.63451C23.8317 2.67218 23.5963 2.77576 23.4268 2.94527C23.2573 3.09593 23.1349 3.32194 23.0595 3.62327C23.003 3.92461 22.9748 4.32012 22.9748 4.80979V9.89486H25.9128ZM35.7612 8.6236V1.13724H50.3949V8.6236H49.2366V7.77608C49.2366 5.85506 48.9729 4.4802 48.4456 3.65152C47.9371 2.82285 47.0425 2.40851 45.7618 2.40851C45.1591 2.40851 44.7354 2.54034 44.4906 2.80401C44.2457 3.04885 44.1233 3.52911 44.1233 4.24478V15.8274C44.1233 16.8068 44.2834 17.4566 44.6036 17.7767C44.9237 18.0781 45.5735 18.2287 46.5528 18.2287H47.0331V19.5H39.123V18.2287H39.6032C40.0929 18.2287 40.4978 18.2005 40.818 18.144C41.1382 18.0686 41.383 17.9462 41.5525 17.7767C41.7408 17.5884 41.8633 17.3436 41.9198 17.0422C41.9951 16.722 42.0328 16.3171 42.0328 15.8274V4.24478C42.0328 3.52911 41.9103 3.04885 41.6655 2.80401C41.4207 2.54034 40.9969 2.40851 40.3942 2.40851C39.1136 2.40851 38.2095 2.82285 37.6822 3.65152C37.1737 4.4802 36.9194 5.85506 36.9194 7.77608V8.6236H35.7612ZM65.0741 10.3186C65.0741 7.41825 64.6032 5.30888 63.6615 3.99053C62.7199 2.65335 61.5051 1.98475 60.0172 1.98475C58.5294 1.98475 57.3146 2.65335 56.3729 3.99053C55.4313 5.30888 54.9604 7.41825 54.9604 10.3186C54.9604 13.219 55.4313 15.3378 56.3729 16.675C57.3146 17.9933 58.5294 18.6525 60.0172 18.6525C61.5051 18.6525 62.7199 17.9933 63.6615 16.675C64.6032 15.3378 65.0741 13.219 65.0741 10.3186ZM67.5036 10.3186C67.5036 11.8065 67.3058 13.1437 66.9103 14.3302C66.5337 15.5167 66.0063 16.5243 65.3283 17.353C64.6503 18.1816 63.8593 18.822 62.9553 19.274C62.0513 19.7072 61.0719 19.9238 60.0172 19.9238C58.9814 19.9238 58.002 19.7072 57.0792 19.274C56.1752 18.822 55.3842 18.1816 54.7062 17.353C54.0282 16.5243 53.4914 15.5167 53.0959 14.3302C52.7192 13.1437 52.5309 11.8065 52.5309 10.3186C52.5309 8.83077 52.7192 7.49358 53.0959 6.30706C53.4914 5.12055 54.0282 4.11295 54.7062 3.28427C55.3842 2.45559 56.1752 1.82467 57.0792 1.39149C58.002 0.939487 58.9814 0.713484 60.0172 0.713484C61.0719 0.713484 62.0513 0.939487 62.9553 1.39149C63.8593 1.82467 64.6503 2.45559 65.3283 3.28427C66.0063 4.11295 66.5337 5.12055 66.9103 6.30706C67.3058 7.49358 67.5036 8.83077 67.5036 10.3186ZM85.2056 1.13724V2.40851H85.0078C84.2921 2.40851 83.7742 2.58743 83.454 2.94527C83.1527 3.28427 82.8419 3.90578 82.5218 4.80979L77.4932 19.7825H76.4197L71.3911 4.80979C71.2216 4.35779 71.0709 3.98111 70.9391 3.67978C70.8261 3.37844 70.6754 3.1336 70.4871 2.94527C70.3176 2.75693 70.101 2.62509 69.8373 2.54976C69.5737 2.45559 69.2253 2.40851 68.7921 2.40851H68.7073V1.13724H75.0354V2.40851H74.8094C73.8866 2.40851 73.3404 2.58743 73.1709 2.94527C73.0202 3.28427 73.105 3.90578 73.4251 4.80979L77.3802 16.5902L81.3635 4.80979C81.6837 3.90578 81.759 3.28427 81.5895 2.94527C81.42 2.58743 80.8738 2.40851 79.951 2.40851H79.7532V1.13724H85.2056ZM98.9525 10.3186C98.9525 7.41825 98.4816 5.30888 97.5399 3.99053C96.5983 2.65335 95.3835 1.98475 93.8956 1.98475C92.4078 1.98475 91.193 2.65335 90.2513 3.99053C89.3097 5.30888 88.8388 7.41825 88.8388 10.3186C88.8388 13.219 89.3097 15.3378 90.2513 16.675C91.193 17.9933 92.4078 18.6525 93.8956 18.6525C95.3835 18.6525 96.5983 17.9933 97.5399 16.675C98.4816 15.3378 98.9525 13.219 98.9525 10.3186ZM101.382 10.3186C101.382 11.8065 101.184 13.1437 100.789 14.3302C100.412 15.5167 99.8847 16.5243 99.2067 17.353C98.5287 18.1816 97.7377 18.822 96.8337 19.274C95.9297 19.7072 94.9503 19.9238 93.8956 19.9238C92.8598 19.9238 91.8804 19.7072 90.9576 19.274C90.0536 18.822 89.2626 18.1816 88.5846 17.353C87.9066 16.5243 87.3698 15.5167 86.9743 14.3302C86.5976 13.1437 86.4093 11.8065 86.4093 10.3186C86.4093 8.83077 86.5976 7.49358 86.9743 6.30706C87.3698 5.12055 87.9066 4.11295 88.5846 3.28427C89.2626 2.45559 90.0536 1.82467 90.9576 1.39149C91.8804 0.939487 92.8598 0.713484 93.8956 0.713484C94.9503 0.713484 95.9297 0.939487 96.8337 1.39149C97.7377 1.82467 98.5287 2.45559 99.2067 3.28427C99.8847 4.11295 100.412 5.12055 100.789 6.30706C101.184 7.49358 101.382 8.83077 101.382 10.3186ZM109.168 10.6011H108.575C108.33 10.6011 108.208 10.7424 108.208 11.0249V15.8274C108.208 16.3171 108.245 16.7126 108.321 17.014C108.396 17.3153 108.518 17.5507 108.688 17.7202C108.876 17.8709 109.13 17.9745 109.451 18.031C109.79 18.0686 110.213 18.0875 110.722 18.0875H112.615C114.121 18.0875 115.176 17.7014 115.779 16.9292C116.381 16.157 116.683 14.9894 116.683 13.4262V13.1437H117.869V19.5H103.32V18.2287H103.546C104.055 18.2287 104.469 18.2005 104.789 18.144C105.128 18.0686 105.383 17.9462 105.552 17.7767C105.74 17.5884 105.872 17.3436 105.948 17.0422C106.023 16.722 106.061 16.3171 106.061 15.8274V4.80979C106.061 4.32012 106.023 3.92461 105.948 3.62327C105.872 3.3031 105.74 3.05827 105.552 2.88877C105.383 2.70043 105.128 2.57801 104.789 2.52151C104.469 2.44618 104.055 2.40851 103.546 2.40851H103.32V1.13724H117.53V7.35233H116.315V7.06982C116.315 6.25998 116.259 5.57255 116.146 5.00755C116.033 4.4237 115.826 3.95286 115.524 3.59502C115.242 3.23719 114.856 2.97352 114.366 2.80401C113.876 2.63451 113.255 2.54976 112.502 2.54976H110.722C110.213 2.54976 109.79 2.57801 109.451 2.63451C109.13 2.67218 108.876 2.77576 108.688 2.94527C108.518 3.09593 108.396 3.32194 108.321 3.62327C108.245 3.92461 108.208 4.32012 108.208 4.80979V9.04735C108.208 9.32986 108.33 9.47111 108.575 9.47111H109.168C109.771 9.47111 110.251 9.43344 110.609 9.35811C110.986 9.28277 111.287 9.1321 111.513 8.9061C111.758 8.66126 111.937 8.31284 112.05 7.86083C112.181 7.40883 112.294 6.81557 112.389 6.08106H113.236V13.9912H112.389C112.294 13.2567 112.181 12.6634 112.05 12.2114C111.937 11.7594 111.758 11.4204 111.513 11.1944C111.287 10.9495 110.986 10.7895 110.609 10.7141C110.251 10.6388 109.771 10.6011 109.168 10.6011Z" fill="#171A1C"/>
</svg>
