<svg width="1120" height="64" viewBox="0 0 1120 64" fill="none" xmlns="http://www.w3.org/2000/svg">
<path d="M0 32C0 14.3269 14.3269 0 32 0H238.716C256.389 0 270.716 14.3269 270.716 32V32C270.716 49.6731 256.389 64 238.716 64H32C14.3269 64 0 49.6731 0 32V32Z" fill="#FFEEB0"/>
<path d="M270.398 32C270.398 14.3269 284.725 0 302.398 0H773.081C790.755 0 805.081 14.3269 805.081 32V32C805.081 49.6731 790.755 64 773.081 64H302.398C284.725 64 270.398 49.6731 270.398 32V32Z" fill="#FFEEB0"/>
<path d="M552.008 32C552.008 14.3269 566.335 0 584.008 0H817.986C835.659 0 849.986 14.3269 849.986 32V32C849.986 49.6731 835.659 64 817.986 64H584.008C566.335 64 552.008 49.6731 552.008 32V32Z" fill="#FFEEB0"/>
<path d="M849.281 32C849.281 14.3269 863.608 0 881.281 0H1088C1105.67 0 1120 14.3269 1120 32V32C1120 49.6731 1105.67 64 1088 64H881.281C863.608 64 849.281 49.6731 849.281 32V32Z" fill="#FFEEB0"/>
</svg>
