<svg width="1120" height="64" viewBox="0 0 1120 64" fill="none" xmlns="http://www.w3.org/2000/svg">
<path d="M43.5079 2.41883e-07L260.504 3.21982e-06C272.687 3.38701e-06 293.517 25.8309 303.852 32.2813C293.491 38.5484 273.326 64 261.218 64L42.909 64C30.5781 64 10.5134 38.7247 -0.000134923 32.2813C9.98748 25.8305 31.6182 7.87149e-08 43.5079 2.41883e-07Z" fill="#3C8C37"/>
<path d="M304.647 0.000190532L551.949 0.000193926C563.867 0.000194089 587.025 26.451 597.422 32.2765C587.005 37.9331 564.548 63.9902 552.694 63.9902L304.043 63.9902C291.953 63.9902 269.582 38.1043 258.989 32.2765C269.039 26.4494 293.029 0.000190372 304.647 0.000190532Z" fill="#3C8C37"/>
<path d="M545.627 0.000190221L814 0.000193904C825.761 0.000194066 850.594 26.8265 861.016 32.2765C850.577 37.5668 826.47 63.9902 814.768 63.9902L545.019 63.9902C533.072 63.9902 509.037 37.7339 498.409 32.2765C508.484 26.8244 534.171 0.000190064 545.627 0.000190221Z" fill="#3C8C37"/>
<path d="M859.652 0.0104643L1076.66 0.010467C1088.84 0.0104671 1109.67 25.8381 1120 32.2865C1109.64 38.5516 1089.48 64 1077.37 64L859.053 64C846.725 64 826.66 38.7279 816.148 32.2865C826.134 25.8377 847.765 0.0104641 859.652 0.0104643Z" fill="#3C8C37"/>
</svg>
