<svg width="56" height="56" viewBox="0 0 56 56" fill="none" xmlns="http://www.w3.org/2000/svg">
<path d="M26.8096 1.44648C27.4263 0.697117 28.5737 0.697115 29.1904 1.44648L35.193 8.74039C35.5192 9.13681 36.0214 9.34482 36.5324 9.29519L45.9344 8.38209C46.9004 8.28828 47.7117 9.09961 47.6179 10.0656L46.7048 19.4676C46.6552 19.9786 46.8632 20.4808 47.2596 20.807L54.5535 26.8096C55.3029 27.4263 55.3029 28.5737 54.5535 29.1904L47.2596 35.193C46.8632 35.5192 46.6552 36.0214 46.7048 36.5324L47.6179 45.9344C47.7117 46.9004 46.9004 47.7117 45.9344 47.6179L36.5324 46.7048C36.0214 46.6552 35.5192 46.8632 35.193 47.2596L29.1904 54.5535C28.5737 55.3029 27.4263 55.3029 26.8096 54.5535L20.807 47.2596C20.4808 46.8632 19.9786 46.6552 19.4676 46.7048L10.0656 47.6179C9.09961 47.7117 8.28828 46.9004 8.38209 45.9344L9.29519 36.5324C9.34482 36.0214 9.13681 35.5192 8.74039 35.193L1.44648 29.1904C0.697117 28.5737 0.697115 27.4263 1.44648 26.8096L8.74039 20.807C9.13681 20.4808 9.34482 19.9786 9.29519 19.4676L8.38209 10.0656C8.28828 9.09961 9.09961 8.28828 10.0656 8.38209L19.4676 9.29519C19.9786 9.34482 20.4808 9.13681 20.807 8.74039L26.8096 1.44648Z" fill="#286BAE"/>
</svg>
