<svg width="120" height="57" viewBox="0 0 120 57" fill="none" xmlns="http://www.w3.org/2000/svg">
<path d="M10.0625 39.1442V37.645H10.2285C10.782 37.645 11.1805 37.4451 11.4241 37.0454C11.6676 36.6234 11.9112 35.8793 12.1547 34.8133L16.1066 17.1562H16.97L20.9219 34.8133C21.1655 35.8793 21.3869 36.6234 21.5861 37.0454C21.8075 37.4451 22.2503 37.645 22.9145 37.645H23.0141V39.1442H18.0659V37.645H18.232C18.9405 37.645 19.3611 37.4451 19.4939 37.0454C19.6268 36.6234 19.5714 35.8793 19.3279 34.8133L18.7965 32.4812H13.6159L13.0845 34.8133C12.841 35.8793 12.7857 36.6234 12.9185 37.0454C13.0513 37.4451 13.472 37.645 14.1805 37.645H14.3465V39.1442H10.0625ZM16.2062 20.9209L13.948 30.982H18.4645L16.2062 20.9209Z" fill="#171A1C"/>
<path d="M35.9222 34.816V35.4823C35.9222 36.6595 35.7783 37.6478 35.4905 38.4474C35.2248 39.247 34.771 39.6467 34.1289 39.6467C33.4869 39.6467 32.9887 39.2025 32.6345 38.3141C32.2803 37.4257 32.0146 36.1486 31.8375 34.4829C31.7489 33.4834 31.6382 32.6617 31.5054 32.0176C31.3725 31.3735 31.2065 30.8626 31.0072 30.4851C30.8301 30.1075 30.6087 29.8521 30.3431 29.7188C30.0774 29.5634 29.7564 29.4856 29.38 29.4856H27.0885V34.816C27.0885 35.971 27.1992 36.7372 27.4206 37.1148C27.6642 37.4701 28.1402 37.6478 28.8486 37.6478H29.0479V39.147H23.6016V37.6478H23.7676C24.4761 37.6478 24.941 37.4701 25.1624 37.1148C25.4059 36.7372 25.5277 35.971 25.5277 34.816V21.8232C25.5277 21.2457 25.5056 20.7793 25.4613 20.4239C25.417 20.0463 25.3284 19.7576 25.1956 19.5577C25.0628 19.3356 24.8746 19.1913 24.6311 19.1246C24.4097 19.0358 24.1218 18.9914 23.7676 18.9914H23.6016V17.4922H29.38C31.0404 17.4922 32.2803 18.003 33.0994 19.0247C33.9186 20.0463 34.3282 21.4789 34.3282 23.3223C34.3282 24.4106 34.1621 25.2879 33.83 25.9542C33.4979 26.6205 33.1437 27.1425 32.7673 27.52C32.3024 27.9642 31.7711 28.2863 31.1733 28.4862V28.6527C31.4832 28.786 31.76 28.9526 32.0035 29.1525C32.2471 29.3524 32.4684 29.6411 32.6677 30.0187C32.867 30.3962 33.033 30.8849 33.1658 31.4845C33.3208 32.062 33.4426 32.7838 33.5311 33.65C33.6418 34.7827 33.7636 35.7378 33.8964 36.5151C34.0293 37.2703 34.2285 37.6478 34.4942 37.6478C34.7156 37.6478 34.8817 37.4701 34.9924 37.1148C35.1031 36.7594 35.1584 36.1598 35.1584 35.3158V34.816H35.9222ZM29.38 27.8199C30.4427 27.8199 31.2176 27.4312 31.7046 26.6538C32.1917 25.8543 32.4352 24.7438 32.4352 23.3223C32.4352 20.5461 31.4168 19.1579 29.38 19.1579H28.8486C28.4944 19.1579 28.1955 19.1913 27.952 19.2579C27.7306 19.3023 27.5535 19.4245 27.4206 19.6244C27.2878 19.802 27.1992 20.0686 27.155 20.4239C27.1107 20.7793 27.0885 21.2457 27.0885 21.8232V27.8199H29.38Z" fill="#171A1C"/>
<path d="M37.4531 26.3207V17.4922H48.9435V26.3207H48.0137V25.3212C48.0137 23.0558 47.8034 21.4345 47.3827 20.4572C46.9842 19.48 46.2868 18.9914 45.2905 18.9914C44.8477 18.9914 44.5267 19.1468 44.3275 19.4578C44.1282 19.7465 44.0286 20.3129 44.0286 21.1568V34.816C44.0286 35.971 44.1503 36.7372 44.3939 37.1148C44.6595 37.4701 45.1688 37.6478 45.9215 37.6478H46.2868V39.147H40.1099V37.6478H40.4752C40.8515 37.6478 41.1615 37.6145 41.405 37.5479C41.6486 37.459 41.8368 37.3147 41.9696 37.1148C42.1246 36.8927 42.2242 36.6039 42.2685 36.2486C42.3349 35.871 42.3681 35.3935 42.3681 34.816V21.1568C42.3681 20.3129 42.2685 19.7465 42.0692 19.4578C41.87 19.1468 41.5489 18.9914 41.1061 18.9914C40.1099 18.9914 39.4014 19.48 38.9808 20.4572C38.5822 21.4345 38.383 23.0558 38.383 25.3212V26.3207H37.4531Z" fill="#171A1C"/>
<path d="M81.5454 17.6543V19.1535H81.3793C80.8258 19.1535 80.4273 19.3645 80.1838 19.7865C79.9403 20.1862 79.6967 20.9192 79.4532 21.9853L75.5013 39.6423H74.6378L70.6859 21.9853C70.4424 20.9192 70.2099 20.1862 69.9885 19.7865C69.7893 19.3645 69.3576 19.1535 68.6934 19.1535H68.5938V17.6543H73.5419V19.1535H73.3759C72.6674 19.1535 72.2468 19.3645 72.1139 19.7865C71.9811 20.1862 72.0364 20.9192 72.28 21.9853L75.4017 35.8777L78.5233 21.9853C78.7669 20.9192 78.8222 20.1862 78.6894 19.7865C78.5565 19.3645 78.1359 19.1535 77.4274 19.1535H77.2614V17.6543H81.5454Z" fill="#171A1C"/>
<path d="M92.0292 28.3174C92.0292 24.897 91.6639 22.4095 90.9333 20.8548C90.2027 19.2779 89.2507 18.4894 88.0773 18.4894C86.926 18.4894 85.974 19.2779 85.2213 20.8548C84.4907 22.4095 84.1254 24.897 84.1254 28.3174C84.1254 31.7377 84.4907 34.2364 85.2213 35.8133C85.974 37.368 86.926 38.1453 88.0773 38.1453C89.2507 38.1453 90.2027 37.368 90.9333 35.8133C91.6639 34.2364 92.0292 31.7377 92.0292 28.3174ZM93.9553 28.3174C93.9553 30.072 93.8003 31.6489 93.4904 33.0481C93.2026 34.4473 92.793 35.6356 92.2616 36.6128C91.7303 37.5901 91.0993 38.3452 90.3687 38.8783C89.6602 39.3891 88.8964 39.6445 88.0773 39.6445C87.2581 39.6445 86.4832 39.3891 85.7526 38.8783C85.0441 38.3452 84.4242 37.5901 83.8929 36.6128C83.3615 35.6356 82.9409 34.4473 82.6309 33.0481C82.3431 31.6489 82.1992 30.072 82.1992 28.3174C82.1992 26.5628 82.3431 24.9859 82.6309 23.5866C82.9409 22.1874 83.3615 20.9992 83.8929 20.0219C84.4242 19.0447 85.0441 18.3006 85.7526 17.7898C86.4832 17.2568 87.2581 16.9902 88.0773 16.9902C88.8964 16.9902 89.6602 17.2568 90.3687 17.7898C91.0993 18.3006 91.7303 19.0447 92.2616 20.0219C92.793 20.9992 93.2026 22.1874 93.4904 23.5866C93.8003 24.9859 93.9553 26.5628 93.9553 28.3174Z" fill="#171A1C"/>
<path d="M99.8407 28.6488H99.3426C99.1654 28.6488 99.0769 28.8154 99.0769 29.1486V34.8121C99.0769 35.3896 99.099 35.856 99.1433 36.2114C99.2097 36.5667 99.3093 36.8444 99.4422 37.0442C99.5972 37.2219 99.7964 37.3441 100.04 37.4107C100.306 37.4551 100.638 37.4773 101.036 37.4773H102.531C103.726 37.4773 104.556 37.022 105.021 36.1114C105.486 35.2008 105.719 33.8238 105.719 31.9803V31.6472H106.649V39.1431H95.2578V37.6439H95.4239C96.2209 37.6439 96.7412 37.4662 96.9847 37.1109C97.2504 36.7333 97.3832 35.9671 97.3832 34.8121V21.8192C97.3832 21.2418 97.35 20.7754 97.2836 20.42C97.2393 20.0424 97.1397 19.7537 96.9847 19.5538C96.8519 19.3317 96.6526 19.1874 96.3869 19.1207C96.1434 19.0319 95.8224 18.9875 95.4239 18.9875H95.2578V17.4883H106.383V24.8176H105.453V24.4845C105.453 22.5522 105.243 21.1863 104.822 20.3867C104.424 19.5649 103.627 19.154 102.431 19.154H101.036C100.638 19.154 100.306 19.1874 100.04 19.254C99.7964 19.2984 99.5972 19.4206 99.4422 19.6204C99.3093 19.7981 99.2097 20.0646 99.1433 20.42C99.099 20.7754 99.0769 21.2418 99.0769 21.8192V26.8165C99.0769 27.1497 99.1654 27.3162 99.3426 27.3162H99.8407C100.306 27.3162 100.682 27.2718 100.97 27.183C101.258 27.0941 101.49 26.9165 101.667 26.6499C101.866 26.3612 102.01 25.9503 102.099 25.4173C102.21 24.8842 102.298 24.1846 102.365 23.3184H102.996V32.6467H102.365C102.298 31.7805 102.21 31.0808 102.099 30.5478C102.01 30.0148 101.866 29.615 101.667 29.3485C101.49 29.0597 101.258 28.8709 100.97 28.7821C100.682 28.6933 100.306 28.6488 99.8407 28.6488Z" fill="#171A1C"/>
<path fill-rule="evenodd" clip-rule="evenodd" d="M67.4325 34.2003C68.0711 32.8729 68.5019 31.3396 68.7248 29.6006C68.9477 27.8615 68.9177 26.2688 68.6346 24.8225C68.3735 23.379 67.9101 22.122 67.2443 21.0515C66.5785 19.981 65.7514 19.1246 64.763 18.4824C63.7774 17.8182 62.6702 17.4069 61.4414 17.2483C60.2345 17.0926 59.0595 17.2096 57.9166 17.5992C56.7984 17.9696 55.7822 18.5882 54.8681 19.4549C53.9539 20.3216 53.1775 21.4186 52.5389 22.746C51.9223 24.0762 51.5025 25.6109 51.2796 27.35C51.0566 29.089 51.0757 30.6803 51.3368 32.1238C51.6198 33.5701 52.0943 34.8285 52.7601 35.899C53.4259 36.9695 54.2516 37.8369 55.2371 38.5011C56.2475 39.1461 57.3561 39.5465 58.563 39.7022C59.7918 39.8607 60.9654 39.7548 62.0836 39.3843C63.2046 38.9919 64.2222 38.3623 65.1363 37.4957C66.0504 36.629 66.8158 35.5305 67.4325 34.2003ZM58.6293 38.5485C62.3887 39.0335 66.0122 34.9335 66.7227 29.391C67.4332 23.8485 64.9616 18.9622 61.2022 18.4773C57.4428 17.9923 53.8193 22.0922 53.1088 27.6347C52.3983 33.1772 54.8699 38.0635 58.6293 38.5485Z" fill="#171A1C"/>
<path d="M59.531 1.45117L59.8158 0.748475L59.531 0.633041L59.2462 0.748475L59.531 1.45117ZM84.3533 11.5118L84.0685 12.2145L84.2055 12.27H84.3533V11.5118ZM34.7087 11.5118V12.27H34.8565L34.9935 12.2145L34.7087 11.5118ZM3.57934 31.3634L4.09091 31.923L4.62068 31.4388L4.16618 30.8833L3.57934 31.3634ZM44.3288 46.014L44.7436 45.3794L44.5546 45.2558H44.3288V46.014ZM59.531 55.9526L59.1161 56.5872L59.531 56.8585L59.9459 56.5872L59.531 55.9526ZM74.7332 46.014V45.2558H74.5074L74.3183 45.3794L74.7332 46.014ZM116.319 31.3634L115.732 30.8833L115.277 31.4388L115.807 31.923L116.319 31.3634ZM59.2462 2.15387L84.0685 12.2145L84.6381 10.8091L59.8158 0.748475L59.2462 2.15387ZM34.9935 12.2145L59.8158 2.15387L59.2462 0.748475L34.4239 10.8091L34.9935 12.2145ZM34.7087 10.7536H12.994V12.27H34.7087V10.7536ZM12.994 10.7536C5.86051 10.7536 0.0777169 16.5364 0.0777169 23.6698H1.59416C1.59416 17.3739 6.69802 12.27 12.994 12.27V10.7536ZM0.0777169 23.6698C0.0777169 26.7702 1.17107 29.6173 2.99251 31.8435L4.16618 30.8833C2.55826 28.918 1.59416 26.4075 1.59416 23.6698H0.0777169ZM3.06778 30.8038C1.23133 32.4825 0.0777169 34.9 0.0777169 37.5858H1.59416C1.59416 35.3434 2.55553 33.3265 4.09091 31.923L3.06778 30.8038ZM0.0777169 37.5858C0.0777169 42.6593 4.19063 46.7723 9.26415 46.7723V45.2558C5.02813 45.2558 1.59416 41.8218 1.59416 37.5858H0.0777169ZM9.26415 46.7723H44.3288V45.2558H9.26415V46.7723ZM59.9459 55.318L44.7436 45.3794L43.9139 46.6487L59.1161 56.5872L59.9459 55.318ZM74.3183 45.3794L59.1161 55.318L59.9459 56.5872L75.1481 46.6487L74.3183 45.3794ZM74.7332 46.7723H110.634V45.2558H74.7332V46.7723ZM110.634 46.7723C115.707 46.7723 119.82 42.6593 119.82 37.5858H118.304C118.304 41.8218 114.87 45.2558 110.634 45.2558V46.7723ZM119.82 37.5858C119.82 34.9 118.667 32.4825 116.83 30.8038L115.807 31.923C117.343 33.3265 118.304 35.3434 118.304 37.5858H119.82ZM116.906 31.8435C118.727 29.6173 119.82 26.7702 119.82 23.6698H118.304C118.304 26.4075 117.34 28.918 115.732 30.8833L116.906 31.8435ZM119.82 23.6698C119.82 16.5364 114.038 10.7536 106.904 10.7536V12.27C113.2 12.27 118.304 17.3739 118.304 23.6698H119.82ZM106.904 10.7536H84.3533V12.27H106.904V10.7536Z" fill="#171A1C"/>
</svg>
