<svg width="146" height="67" viewBox="0 0 146 67" fill="none" xmlns="http://www.w3.org/2000/svg">
<g clip-path="url(#clip0_7506_22568)">
<path d="M56.0362 55.7447L55.7616 55.5819H55.4423H21.3115C18.3344 55.5819 15.5502 55.4195 13.0222 54.4794C6.81056 52.1694 2.91056 47.6432 1.63089 42.7249C0.354762 37.8202 1.65203 32.4201 6.05296 28.2191L6.41351 27.875V27.3765C6.41351 24.1933 8.27966 18.9607 13.4956 15.2054C18.6772 11.4747 27.3052 9.11186 40.9603 11.9474L41.2728 12.0123L41.5747 11.9089L72.7473 1.22852L105.159 11.9132L105.458 12.0116L105.765 11.9464C119.108 9.11724 127.548 11.662 132.627 15.4833C137.759 19.3445 139.585 24.59 139.585 27.3765V27.875L139.945 28.2191C144.346 32.4201 145.643 37.8202 144.367 42.7249C143.088 47.6432 139.188 52.1694 132.976 54.4794C130.448 55.4195 127.664 55.5819 124.687 55.5819H89.7774H89.4539L89.1768 55.7487L72.7356 65.6428L56.0362 55.7447Z" stroke="#FAF3EB" stroke-width="2.32979"/>
<path d="M12.8516 45.4452V43.6572H13.0496C13.7097 43.6572 14.185 43.4188 14.4754 42.942C14.7659 42.4387 15.0563 41.5514 15.3468 40.2799L20.0599 19.2217H21.0897L25.8029 40.2799C26.0933 41.5514 26.3573 42.4387 26.595 42.942C26.859 43.4188 27.3871 43.6572 28.1792 43.6572H28.2981V45.4452H22.3967V43.6572H22.5947C23.4397 43.6572 23.9414 43.4188 24.0998 42.942C24.2582 42.4387 24.1922 41.5514 23.9017 40.2799L23.268 37.4987H17.0894L16.4557 40.2799C16.1653 41.5514 16.0993 42.4387 16.2577 42.942C16.4161 43.4188 16.9178 43.6572 17.7628 43.6572H17.9608V45.4452H12.8516ZM20.1787 23.7115L17.4855 35.7107H22.872L20.1787 23.7115Z" fill="#FAF3EB"/>
<path d="M43.694 40.281V41.0757C43.694 42.4796 43.5223 43.6583 43.1791 44.6119C42.8622 45.5655 42.3209 46.0423 41.5552 46.0423C40.7895 46.0423 40.1954 45.5125 39.7729 44.453C39.3505 43.3934 39.0336 41.8704 38.8224 39.8837C38.7168 38.6917 38.5847 37.7117 38.4263 36.9435C38.2679 36.1754 38.0699 35.5661 37.8322 35.1158C37.621 34.6655 37.3569 34.3609 37.0401 34.202C36.7232 34.0165 36.3404 33.9238 35.8915 33.9238H33.1587V40.281C33.1587 41.6584 33.2907 42.5723 33.5547 43.0226C33.8452 43.4464 34.4129 43.6583 35.2578 43.6583H35.4954V45.4463H29V43.6583H29.198C30.043 43.6583 30.5975 43.4464 30.8615 43.0226C31.1519 42.5723 31.2972 41.6584 31.2972 40.281V24.7854C31.2972 24.0967 31.2708 23.5404 31.218 23.1166C31.1651 22.6663 31.0595 22.3219 30.9011 22.0835C30.7427 21.8187 30.5182 21.6465 30.2278 21.567C29.9638 21.4611 29.6205 21.4081 29.198 21.4081H29V19.6201H35.8915C37.8718 19.6201 39.3505 20.2294 40.3274 21.4478C41.3044 22.6663 41.7929 24.3748 41.7929 26.5733C41.7929 27.8712 41.5948 28.9175 41.1988 29.7122C40.8027 30.5068 40.3802 31.1293 39.9314 31.5796C39.3769 32.1094 38.7432 32.4935 38.0303 32.7319V32.9305C38.3999 33.0895 38.73 33.2881 39.0204 33.5265C39.3109 33.7649 39.5749 34.1093 39.8125 34.5596C40.0502 35.0099 40.2482 35.5926 40.4066 36.3078C40.5915 36.9965 40.7367 37.8574 40.8423 38.8904C40.9743 40.2413 41.1196 41.3803 41.278 42.3074C41.4364 43.208 41.674 43.6583 41.9909 43.6583C42.2549 43.6583 42.453 43.4464 42.585 43.0226C42.717 42.5988 42.783 41.8836 42.783 40.877V40.281H43.694ZM35.8915 31.9372C37.1589 31.9372 38.0831 31.4737 38.664 30.5466C39.2449 29.593 39.5353 28.2686 39.5353 26.5733C39.5353 23.2623 38.3207 21.6067 35.8915 21.6067H35.2578C34.8353 21.6067 34.4789 21.6465 34.1884 21.7259C33.9244 21.7789 33.7132 21.9246 33.5547 22.163C33.3963 22.3749 33.2907 22.6928 33.2379 23.1166C33.1851 23.5404 33.1587 24.0967 33.1587 24.7854V31.9372H35.8915Z" fill="#FAF3EB"/>
<path d="M45.5234 30.1492V19.6201H59.2272V30.1492H58.1183V28.9573C58.1183 26.2555 57.8674 24.3218 57.3657 23.1563C56.8905 21.9908 56.0587 21.4081 54.8705 21.4081C54.3425 21.4081 53.9596 21.5935 53.722 21.9643C53.4843 22.3087 53.3655 22.9841 53.3655 23.9907V40.281C53.3655 41.6584 53.5107 42.5723 53.8012 43.0226C54.118 43.4464 54.7253 43.6583 55.6231 43.6583H56.0587V45.4463H48.6919V43.6583H49.1276C49.5765 43.6583 49.9462 43.6186 50.2366 43.5391C50.527 43.4332 50.7515 43.261 50.9099 43.0226C51.0947 42.7577 51.2136 42.4134 51.2664 41.9895C51.3456 41.5392 51.3852 40.9697 51.3852 40.281V23.9907C51.3852 22.9841 51.2664 22.3087 51.0287 21.9643C50.7911 21.5935 50.4082 21.4081 49.8801 21.4081C48.6919 21.4081 47.847 21.9908 47.3453 23.1563C46.8701 24.3218 46.6324 26.2555 46.6324 28.9573V30.1492H45.5234Z" fill="#FAF3EB"/>
<path d="M98.1028 19.8145V21.6024H97.9048C97.2447 21.6024 96.7694 21.8541 96.479 22.3573C96.1885 22.8341 95.8981 23.7082 95.6076 24.9797L90.8945 46.0379H89.8647L85.1516 24.9797C84.8611 23.7082 84.5839 22.8341 84.3198 22.3573C84.0822 21.8541 83.5673 21.6024 82.7752 21.6024H82.6562V19.8145H88.5577V21.6024H88.3596C87.5146 21.6024 87.0131 21.8541 86.8546 22.3573C86.6962 22.8341 86.7622 23.7082 87.0527 24.9797L90.7757 41.5482L94.4986 24.9797C94.789 23.7082 94.8551 22.8341 94.6967 22.3573C94.5383 21.8541 94.0366 21.6024 93.1916 21.6024H92.9936V19.8145H98.1028Z" fill="#FAF3EB"/>
<path d="M110.606 32.5296C110.606 28.4504 110.171 25.4837 109.299 23.6295C108.428 21.7488 107.293 20.8085 105.893 20.8085C104.52 20.8085 103.385 21.7488 102.487 23.6295C101.616 25.4837 101.18 28.4504 101.18 32.5296C101.18 36.6088 101.616 39.5887 102.487 41.4694C103.385 43.3236 104.52 44.2507 105.893 44.2507C107.293 44.2507 108.428 43.3236 109.299 41.4694C110.171 39.5887 110.606 36.6088 110.606 32.5296ZM112.903 32.5296C112.903 34.6222 112.719 36.5028 112.349 38.1716C112.006 39.8404 111.517 41.2575 110.884 42.423C110.25 43.5885 109.497 44.4891 108.626 45.1248C107.781 45.734 106.87 46.0386 105.893 46.0386C104.916 46.0386 103.992 45.734 103.121 45.1248C102.276 44.4891 101.536 43.5885 100.903 42.423C100.269 41.2575 99.7674 39.8404 99.3977 38.1716C99.0544 36.5028 98.8828 34.6222 98.8828 32.5296C98.8828 30.437 99.0544 28.5563 99.3977 26.8876C99.7674 25.2188 100.269 23.8017 100.903 22.6362C101.536 21.4707 102.276 20.5833 103.121 19.9741C103.992 19.3384 104.916 19.0205 105.893 19.0205C106.87 19.0205 107.781 19.3384 108.626 19.9741C109.497 20.5833 110.25 21.4707 110.884 22.6362C111.517 23.8017 112.006 25.2188 112.349 26.8876C112.719 28.5563 112.903 30.437 112.903 32.5296Z" fill="#FAF3EB"/>
<path d="M119.927 32.9266H119.333C119.121 32.9266 119.016 33.1253 119.016 33.5226V40.2771C119.016 40.9658 119.042 41.5221 119.095 41.9459C119.174 42.3697 119.293 42.7008 119.451 42.9392C119.636 43.1511 119.874 43.2968 120.164 43.3763C120.481 43.4293 120.877 43.4557 121.352 43.4557H123.135C124.561 43.4557 125.551 42.9127 126.105 41.8267C126.66 40.7407 126.937 39.0984 126.937 36.8999V36.5025H128.046V45.4424H114.461V43.6544H114.659C115.61 43.6544 116.23 43.4425 116.52 43.0187C116.837 42.5684 116.996 41.6545 116.996 40.2771V24.7814C116.996 24.0927 116.956 23.5365 116.877 23.1127C116.824 22.6624 116.705 22.318 116.52 22.0796C116.362 21.8147 116.124 21.6426 115.808 21.5631C115.517 21.4572 115.134 21.4042 114.659 21.4042H114.461V19.6162H127.729V28.3574H126.62V27.96C126.62 25.6556 126.369 24.0265 125.868 23.0729C125.392 22.0929 124.442 21.6028 123.016 21.6028H121.352C120.877 21.6028 120.481 21.6426 120.164 21.722C119.874 21.775 119.636 21.9207 119.451 22.1591C119.293 22.371 119.174 22.6889 119.095 23.1127C119.042 23.5365 119.016 24.0927 119.016 24.7814V30.7413C119.016 31.1387 119.121 31.3373 119.333 31.3373H119.927C120.481 31.3373 120.93 31.2843 121.273 31.1784C121.616 31.0724 121.894 30.8605 122.105 30.5427C122.343 30.1983 122.514 29.7083 122.62 29.0726C122.752 28.4368 122.857 27.6025 122.937 26.5694H123.689V37.6945H122.937C122.857 36.6615 122.752 35.8271 122.62 35.1914C122.514 34.5557 122.343 34.0789 122.105 33.761C121.894 33.4167 121.616 33.1915 121.273 33.0855C120.93 32.9796 120.481 32.9266 119.927 32.9266Z" fill="#FAF3EB"/>
<path fill-rule="evenodd" clip-rule="evenodd" d="M81.2763 39.5479C82.0379 37.9648 82.5517 36.1362 82.8175 34.0621C83.0834 31.9881 83.0476 30.0886 82.71 28.3637C82.3986 26.6422 81.8459 25.143 81.0518 23.8663C80.2578 22.5896 79.2713 21.5683 78.0926 20.8024C76.9171 20.0102 75.5967 19.5196 74.1311 19.3305C72.6917 19.1448 71.2905 19.2843 69.9273 19.749C68.5937 20.1908 67.3818 20.9285 66.2916 21.9621C65.2014 22.9957 64.2754 24.3041 63.5138 25.8872C62.7784 27.4737 62.2777 29.304 62.0119 31.378C61.746 33.4521 61.7687 35.3499 62.0801 37.0714C62.4177 38.7963 62.9835 40.2972 63.7775 41.5739C64.5716 42.8506 65.5563 43.885 66.7318 44.6772C67.9367 45.4465 69.2589 45.924 70.6983 46.1096C72.1638 46.2987 73.5634 46.1724 74.897 45.7306C76.234 45.2625 77.4476 44.5117 78.5378 43.4781C79.628 42.4444 80.5409 41.1344 81.2763 39.5479ZM70.7773 44.7337C75.2609 45.3121 79.5825 40.4224 80.4298 33.8122C81.2772 27.2021 78.3295 21.3746 73.8459 20.7962C69.3623 20.2178 65.0408 25.1075 64.1934 31.7176C63.3461 38.3278 66.2938 44.1553 70.7773 44.7337Z" fill="#FAF3EB"/>
</g>
<defs>
<clipPath id="clip0_7506_22568">
<rect width="146" height="67" fill="white"/>
</clipPath>
</defs>
</svg>
