<svg width="313" height="80" viewBox="0 0 313 80" fill="none" xmlns="http://www.w3.org/2000/svg">
<path d="M0 75.6893V70.8225H0.540748C2.34324 70.8225 3.64103 70.1736 4.43413 68.8758C5.22723 67.5059 6.02033 65.0906 6.81342 61.6298L19.6832 4.31055H22.4951L35.3649 61.6298C36.158 65.0906 36.879 67.5059 37.5279 68.8758C38.2489 70.1736 39.6909 70.8225 41.8539 70.8225H42.1783V75.6893H26.064V70.8225H26.6048C28.912 70.8225 30.2819 70.1736 30.7145 68.8758C31.1471 67.5059 30.9668 65.0906 30.1737 61.6298L28.4433 54.0593H11.572L9.84161 61.6298C9.04851 65.0906 8.86826 67.5059 9.30086 68.8758C9.73346 70.1736 11.1034 70.8225 13.4105 70.8225H13.9513V75.6893H0ZM20.0077 16.5314L12.6535 49.1926H27.3618L20.0077 16.5314Z" fill="#F1F3F4"/>
<path d="M83.811 60.2778V62.4408C83.811 66.2621 83.3423 69.4705 82.405 72.0661C81.5399 74.6617 80.0618 75.9595 77.9709 75.9595C75.88 75.9595 74.2578 74.5175 73.1042 71.6335C71.9506 68.7495 71.0854 64.6038 70.5086 59.1963C70.2202 55.9518 69.8597 53.2841 69.4271 51.1932C68.9945 49.1023 68.4537 47.4441 67.8049 46.2184C67.2281 44.9927 66.5071 44.1635 65.6419 43.7309C64.7767 43.2262 63.7312 42.9739 62.5055 42.9739H55.0432V60.2778C55.0432 64.027 55.4037 66.5144 56.1247 67.7401C56.9178 68.8937 58.4679 69.4705 60.7751 69.4705H61.424V74.3372H43.6875V69.4705H44.2282C46.5354 69.4705 48.0495 68.8937 48.7705 67.7401C49.5636 66.5144 49.9602 64.027 49.9602 60.2778V18.0995C49.9602 16.2249 49.8881 14.7108 49.7439 13.5572C49.5997 12.3315 49.3113 11.3942 48.8787 10.7453C48.4461 10.0243 47.8332 9.55567 47.0401 9.33937C46.3191 9.05097 45.3818 8.90677 44.2282 8.90677H43.6875V4.04004H62.5055C67.913 4.04004 71.9506 5.69833 74.6183 9.01492C77.286 12.3315 78.6198 16.9819 78.6198 22.9662C78.6198 26.4991 78.0791 29.347 76.9976 31.51C75.9161 33.673 74.7625 35.3674 73.5368 36.5931C72.0227 38.035 70.2923 39.0805 68.3456 39.7294V40.2701C69.355 40.7027 70.2562 41.2435 71.0493 41.8924C71.8424 42.5413 72.5634 43.4786 73.2123 44.7043C73.8612 45.93 74.402 47.5162 74.8346 49.4629C75.3393 51.3374 75.7358 53.6807 76.0242 56.4926C76.3847 60.1697 76.7813 63.2699 77.2139 65.7934C77.6465 68.2448 78.2954 69.4705 79.1606 69.4705C79.8816 69.4705 80.4223 68.8937 80.7828 67.7401C81.1433 66.5865 81.3235 64.6398 81.3235 61.9V60.2778H83.811ZM62.5055 37.5664C65.9663 37.5664 68.4898 36.3047 70.076 33.7812C71.6622 31.1856 72.4553 27.5806 72.4553 22.9662C72.4553 13.9537 69.1387 9.44752 62.5055 9.44752H60.7751C59.6215 9.44752 58.6482 9.55567 57.8551 9.77197C57.1341 9.91617 56.5573 10.3127 56.1247 10.9616C55.6921 11.5384 55.4037 12.4036 55.2595 13.5572C55.1153 14.7108 55.0432 16.2249 55.0432 18.0995V37.5664H62.5055Z" fill="#F1F3F4"/>
<path d="M85.3203 33.5112V4.85156H122.74V33.5112H119.712V30.2667C119.712 22.9125 119.027 17.6493 117.657 14.4769C116.359 11.3045 114.088 9.7183 110.844 9.7183C109.402 9.7183 108.356 10.223 107.707 11.2324C107.058 12.1697 106.734 14.0082 106.734 16.748V61.0893C106.734 64.8385 107.13 67.326 107.924 68.5517C108.789 69.7053 110.447 70.2821 112.898 70.2821H114.088V75.1488H93.9723V70.2821H95.1619C96.3876 70.2821 97.397 70.1739 98.1901 69.9576C98.9832 69.6692 99.596 69.2006 100.029 68.5517C100.533 67.8307 100.858 66.8934 101.002 65.7398C101.218 64.5141 101.326 62.9639 101.326 61.0893V16.748C101.326 14.0082 101.002 12.1697 100.353 11.2324C99.7042 10.223 98.6588 9.7183 97.2168 9.7183C93.9723 9.7183 91.6651 11.3045 90.2952 14.4769C88.9974 17.6493 88.3485 22.9125 88.3485 30.2667V33.5112H85.3203Z" fill="#F1F3F4"/>
<path fill-rule="evenodd" clip-rule="evenodd" d="M181.54 58.5848C183.62 54.2757 185.022 49.2984 185.748 43.6529C186.474 38.0074 186.377 32.8371 185.455 28.142C184.605 23.4561 183.095 19.3756 180.927 15.9004C178.759 12.4253 176.065 9.64534 172.846 7.5606C169.637 5.4044 166.031 4.06899 162.029 3.55435C158.099 3.04891 154.272 3.42858 150.55 4.69335C146.909 5.89586 143.599 7.90386 140.622 10.7173C137.645 13.5308 135.117 17.0921 133.038 21.4012C131.029 25.7195 129.662 30.7014 128.936 36.3469C128.21 41.9924 128.272 47.1581 129.123 51.844C130.044 56.5391 131.589 60.6242 133.758 64.0993C135.926 67.5745 138.615 70.3902 141.824 72.5464C145.115 74.6403 148.725 75.94 152.655 76.4454C156.657 76.9601 160.479 76.6161 164.121 75.4136C167.771 74.1396 171.085 72.0959 174.062 69.2824C177.039 66.469 179.532 62.9031 181.54 58.5848ZM152.871 72.7001C165.114 74.2745 176.915 60.9651 179.228 42.9727C181.542 24.9802 173.493 9.11816 161.25 7.54375C149.008 5.96933 137.207 19.2788 134.893 37.2712C132.579 55.2636 140.628 71.1257 152.871 72.7001Z" fill="#F1F3F4"/>
<path d="M234.124 4.31055V9.17728H233.583C231.78 9.17728 230.483 9.86223 229.69 11.2321C228.896 12.5299 228.103 14.9092 227.31 18.37L214.44 75.6893H211.629L198.759 18.37C197.966 14.9092 197.209 12.5299 196.488 11.2321C195.839 9.86223 194.433 9.17728 192.27 9.17728H191.945V4.31055H208.06V9.17728H207.519C205.212 9.17728 203.842 9.86223 203.409 11.2321C202.977 12.5299 203.157 14.9092 203.95 18.37L214.116 63.4684L224.282 18.37C225.075 14.9092 225.255 12.5299 224.823 11.2321C224.39 9.86223 223.02 9.17728 220.713 9.17728H220.172V4.31055H234.124Z" fill="#F1F3F4"/>
<path d="M267.645 40.0003C267.645 28.897 266.455 20.8218 264.076 15.7748C261.697 10.6558 258.597 8.09622 254.775 8.09622C251.026 8.09622 247.926 10.6558 245.474 15.7748C243.095 20.8218 241.905 28.897 241.905 40.0003C241.905 51.1037 243.095 59.2149 245.474 64.334C247.926 69.381 251.026 71.9045 254.775 71.9045C258.597 71.9045 261.697 69.381 264.076 64.334C266.455 59.2149 267.645 51.1037 267.645 40.0003ZM273.918 40.0003C273.918 45.6962 273.413 50.8153 272.404 55.3576C271.466 59.8999 270.133 63.7572 268.402 66.9296C266.672 70.102 264.617 72.5534 262.238 74.2838C259.93 75.9421 257.443 76.7712 254.775 76.7712C252.108 76.7712 249.584 75.9421 247.205 74.2838C244.898 72.5534 242.879 70.102 241.148 66.9296C239.418 63.7572 238.048 59.8999 237.039 55.3576C236.101 50.8153 235.633 45.6962 235.633 40.0003C235.633 34.3045 236.101 29.1854 237.039 24.6431C238.048 20.1008 239.418 16.2435 241.148 13.0711C242.879 9.89872 244.898 7.48337 247.205 5.82508C249.584 4.09469 252.108 3.22949 254.775 3.22949C257.443 3.22949 259.93 4.09469 262.238 5.82508C264.617 7.48337 266.672 9.89872 268.402 13.0711C270.133 16.2435 271.466 20.1008 272.404 24.6431C273.413 29.1854 273.918 34.3045 273.918 40.0003Z" fill="#F1F3F4"/>
<path d="M290.352 41.0817H288.73C288.153 41.0817 287.865 41.6224 287.865 42.7039V61.0893C287.865 62.9639 287.937 64.478 288.081 65.6316C288.298 66.7852 288.622 67.6865 289.055 68.3354C289.559 68.9122 290.208 69.3087 291.001 69.525C291.866 69.6692 292.948 69.7413 294.246 69.7413H299.113C303.006 69.7413 305.71 68.2633 307.224 65.3072C308.738 62.3511 309.495 57.8809 309.495 51.8966V50.8151H312.523V75.1488H275.428V70.2821H275.968C278.564 70.2821 280.258 69.7053 281.052 68.5517C281.917 67.326 282.349 64.8385 282.349 61.0893V18.911C282.349 17.0364 282.241 15.5223 282.025 14.3687C281.881 13.143 281.556 12.2057 281.052 11.5568C280.619 10.8358 279.97 10.3672 279.105 10.1509C278.312 9.86249 277.266 9.7183 275.968 9.7183H275.428V4.85156H311.658V28.6445H308.63V27.563C308.63 21.2903 307.945 16.8562 306.575 14.2606C305.277 11.5929 302.681 10.259 298.788 10.259H294.246C292.948 10.259 291.866 10.3672 291.001 10.5835C290.208 10.7277 289.559 11.1242 289.055 11.7731C288.622 12.3499 288.298 13.2151 288.081 14.3687C287.937 15.5223 287.865 17.0364 287.865 18.911V35.1334C287.865 36.2149 288.153 36.7557 288.73 36.7557H290.352C291.866 36.7557 293.092 36.6115 294.029 36.3231C294.967 36.0347 295.724 35.4579 296.301 34.5927C296.95 33.6554 297.418 32.3216 297.707 30.5912C298.067 28.8608 298.355 26.5896 298.572 23.7777H300.627V54.0596H298.572C298.355 51.2477 298.067 48.9766 297.707 47.2462C297.418 45.5158 296.95 44.218 296.301 43.3528C295.724 42.4155 294.967 41.8027 294.029 41.5143C293.092 41.2259 291.866 41.0817 290.352 41.0817Z" fill="#F1F3F4"/>
</svg>
