<svg width="146" height="67" viewBox="0 0 146 67" fill="none" xmlns="http://www.w3.org/2000/svg">
<path d="M56.0371 55.7451L55.7625 55.5823H55.4432H21.3124C18.3353 55.5823 15.5511 55.4199 13.0231 54.4798C6.81145 52.1698 2.91145 47.6436 1.63178 42.7253C0.35565 37.8206 1.65292 32.4205 6.05385 28.2195L6.4144 27.8754V27.3769C6.4144 24.1937 8.28055 18.9611 13.4965 15.2058C18.6781 11.4751 27.3061 9.11226 40.9612 11.9478L41.2737 12.0127L41.5756 11.9093L72.7482 1.22892L105.16 11.9136L105.459 12.012L105.766 11.9468C119.109 9.11764 127.549 11.6624 132.628 15.4837C137.76 19.3449 139.586 24.5904 139.586 27.3769V27.8754L139.946 28.2195C144.347 32.4205 145.644 37.8206 144.368 42.7253C143.089 47.6436 139.189 52.1698 132.977 54.4798C130.449 55.4199 127.665 55.5823 124.688 55.5823H89.7783H89.4548L89.1777 55.7491L72.7365 65.6432L56.0371 55.7451Z" stroke="#1A1E20" stroke-width="2.32979"/>
<path d="M12.8516 45.4452V43.6572H13.0496C13.7097 43.6572 14.185 43.4188 14.4754 42.942C14.7659 42.4387 15.0563 41.5514 15.3468 40.2799L20.0599 19.2217H21.0897L25.8029 40.2799C26.0933 41.5514 26.3573 42.4387 26.595 42.942C26.859 43.4188 27.3871 43.6572 28.1792 43.6572H28.2981V45.4452H22.3967V43.6572H22.5947C23.4397 43.6572 23.9414 43.4188 24.0998 42.942C24.2582 42.4387 24.1922 41.5514 23.9017 40.2799L23.268 37.4987H17.0894L16.4557 40.2799C16.1653 41.5514 16.0993 42.4387 16.2577 42.942C16.4161 43.4188 16.9178 43.6572 17.7628 43.6572H17.9608V45.4452H12.8516ZM20.1787 23.7115L17.4855 35.7107H22.872L20.1787 23.7115Z" fill="#1A1E20"/>
<path d="M43.694 40.281V41.0757C43.694 42.4796 43.5223 43.6583 43.1791 44.6119C42.8622 45.5655 42.3209 46.0423 41.5552 46.0423C40.7895 46.0423 40.1954 45.5125 39.7729 44.453C39.3505 43.3934 39.0336 41.8704 38.8224 39.8837C38.7168 38.6917 38.5847 37.7117 38.4263 36.9435C38.2679 36.1754 38.0699 35.5661 37.8322 35.1158C37.621 34.6655 37.3569 34.3609 37.0401 34.202C36.7232 34.0165 36.3404 33.9238 35.8915 33.9238H33.1587V40.281C33.1587 41.6584 33.2907 42.5723 33.5547 43.0226C33.8452 43.4464 34.4129 43.6583 35.2578 43.6583H35.4954V45.4463H29V43.6583H29.198C30.043 43.6583 30.5975 43.4464 30.8615 43.0226C31.1519 42.5723 31.2972 41.6584 31.2972 40.281V24.7854C31.2972 24.0967 31.2708 23.5404 31.218 23.1166C31.1651 22.6663 31.0595 22.3219 30.9011 22.0835C30.7427 21.8187 30.5182 21.6465 30.2278 21.567C29.9638 21.4611 29.6205 21.4081 29.198 21.4081H29V19.6201H35.8915C37.8718 19.6201 39.3505 20.2294 40.3274 21.4478C41.3044 22.6663 41.7929 24.3748 41.7929 26.5733C41.7929 27.8712 41.5948 28.9175 41.1988 29.7122C40.8027 30.5068 40.3802 31.1293 39.9314 31.5796C39.3769 32.1094 38.7432 32.4935 38.0303 32.7319V32.9305C38.3999 33.0895 38.73 33.2881 39.0204 33.5265C39.3109 33.7649 39.5749 34.1093 39.8125 34.5596C40.0502 35.0099 40.2482 35.5926 40.4066 36.3078C40.5915 36.9965 40.7367 37.8574 40.8423 38.8904C40.9743 40.2413 41.1196 41.3803 41.278 42.3074C41.4364 43.208 41.674 43.6583 41.9909 43.6583C42.2549 43.6583 42.453 43.4464 42.585 43.0226C42.717 42.5988 42.783 41.8836 42.783 40.877V40.281H43.694ZM35.8915 31.9372C37.1589 31.9372 38.0831 31.4737 38.664 30.5466C39.2449 29.593 39.5353 28.2686 39.5353 26.5733C39.5353 23.2623 38.3207 21.6067 35.8915 21.6067H35.2578C34.8353 21.6067 34.4789 21.6465 34.1884 21.7259C33.9244 21.7789 33.7132 21.9246 33.5547 22.163C33.3963 22.3749 33.2907 22.6928 33.2379 23.1166C33.1851 23.5404 33.1587 24.0967 33.1587 24.7854V31.9372H35.8915Z" fill="#1A1E20"/>
<path d="M45.5234 30.1492V19.6201H59.2272V30.1492H58.1183V28.9573C58.1183 26.2555 57.8674 24.3218 57.3657 23.1563C56.8905 21.9908 56.0587 21.4081 54.8705 21.4081C54.3425 21.4081 53.9596 21.5935 53.722 21.9643C53.4843 22.3087 53.3655 22.9841 53.3655 23.9907V40.281C53.3655 41.6584 53.5107 42.5723 53.8012 43.0226C54.118 43.4464 54.7253 43.6583 55.6231 43.6583H56.0587V45.4463H48.6919V43.6583H49.1276C49.5765 43.6583 49.9462 43.6186 50.2366 43.5391C50.527 43.4332 50.7515 43.261 50.9099 43.0226C51.0947 42.7577 51.2136 42.4134 51.2664 41.9895C51.3456 41.5392 51.3852 40.9697 51.3852 40.281V23.9907C51.3852 22.9841 51.2664 22.3087 51.0287 21.9643C50.7911 21.5935 50.4082 21.4081 49.8801 21.4081C48.6919 21.4081 47.847 21.9908 47.3453 23.1563C46.8701 24.3218 46.6324 26.2555 46.6324 28.9573V30.1492H45.5234Z" fill="#1A1E20"/>
<path d="M98.1027 19.8145V21.6024H97.9047C97.2446 21.6024 96.7693 21.8541 96.4789 22.3573C96.1884 22.8341 95.898 23.7082 95.6075 24.9797L90.8944 46.0379H89.8646L85.1515 24.9797C84.861 23.7082 84.5838 22.8341 84.3197 22.3573C84.0821 21.8541 83.5672 21.6024 82.7751 21.6024H82.6562V19.8145H88.5576V21.6024H88.3596C87.5146 21.6024 87.013 21.8541 86.8545 22.3573C86.6961 22.8341 86.7621 23.7082 87.0526 24.9797L90.7756 41.5482L94.4986 24.9797C94.789 23.7082 94.855 22.8341 94.6966 22.3573C94.5382 21.8541 94.0365 21.6024 93.1915 21.6024H92.9935V19.8145H98.1027Z" fill="#1A1E20"/>
<path d="M110.606 32.5296C110.606 28.4504 110.171 25.4837 109.299 23.6295C108.428 21.7488 107.293 20.8085 105.893 20.8085C104.52 20.8085 103.385 21.7488 102.487 23.6295C101.616 25.4837 101.18 28.4504 101.18 32.5296C101.18 36.6088 101.616 39.5887 102.487 41.4694C103.385 43.3236 104.52 44.2507 105.893 44.2507C107.293 44.2507 108.428 43.3236 109.299 41.4694C110.171 39.5887 110.606 36.6088 110.606 32.5296ZM112.903 32.5296C112.903 34.6222 112.719 36.5028 112.349 38.1716C112.006 39.8404 111.517 41.2575 110.884 42.423C110.25 43.5885 109.497 44.4891 108.626 45.1248C107.781 45.734 106.87 46.0386 105.893 46.0386C104.916 46.0386 103.992 45.734 103.121 45.1248C102.276 44.4891 101.536 43.5885 100.903 42.423C100.269 41.2575 99.7674 39.8404 99.3977 38.1716C99.0544 36.5028 98.8828 34.6222 98.8828 32.5296C98.8828 30.437 99.0544 28.5563 99.3977 26.8876C99.7674 25.2188 100.269 23.8017 100.903 22.6362C101.536 21.4707 102.276 20.5833 103.121 19.9741C103.992 19.3384 104.916 19.0205 105.893 19.0205C106.87 19.0205 107.781 19.3384 108.626 19.9741C109.497 20.5833 110.25 21.4707 110.884 22.6362C111.517 23.8017 112.006 25.2188 112.349 26.8876C112.719 28.5563 112.903 30.437 112.903 32.5296Z" fill="#1A1E20"/>
<path d="M119.927 32.9266H119.333C119.121 32.9266 119.016 33.1253 119.016 33.5226V40.2771C119.016 40.9658 119.042 41.5221 119.095 41.9459C119.174 42.3697 119.293 42.7008 119.451 42.9392C119.636 43.1511 119.874 43.2968 120.164 43.3763C120.481 43.4293 120.877 43.4557 121.352 43.4557H123.135C124.561 43.4557 125.551 42.9127 126.105 41.8267C126.66 40.7407 126.937 39.0984 126.937 36.8999V36.5025H128.046V45.4424H114.461V43.6544H114.659C115.61 43.6544 116.23 43.4425 116.52 43.0187C116.837 42.5684 116.996 41.6545 116.996 40.2771V24.7814C116.996 24.0927 116.956 23.5365 116.877 23.1127C116.824 22.6624 116.705 22.318 116.52 22.0796C116.362 21.8147 116.124 21.6426 115.808 21.5631C115.517 21.4572 115.134 21.4042 114.659 21.4042H114.461V19.6162H127.729V28.3574H126.62V27.96C126.62 25.6556 126.369 24.0265 125.868 23.0729C125.392 22.0929 124.442 21.6028 123.016 21.6028H121.352C120.877 21.6028 120.481 21.6426 120.164 21.722C119.874 21.775 119.636 21.9207 119.451 22.1591C119.293 22.371 119.174 22.6889 119.095 23.1127C119.042 23.5365 119.016 24.0927 119.016 24.7814V30.7413C119.016 31.1387 119.121 31.3373 119.333 31.3373H119.927C120.481 31.3373 120.93 31.2843 121.273 31.1784C121.616 31.0724 121.894 30.8605 122.105 30.5427C122.343 30.1983 122.514 29.7083 122.62 29.0726C122.752 28.4368 122.857 27.6025 122.937 26.5694H123.689V37.6945H122.937C122.857 36.6615 122.752 35.8271 122.62 35.1914C122.514 34.5557 122.343 34.0789 122.105 33.761C121.894 33.4167 121.616 33.1915 121.273 33.0855C120.93 32.9796 120.481 32.9266 119.927 32.9266Z" fill="#1A1E20"/>
<path fill-rule="evenodd" clip-rule="evenodd" d="M81.2746 39.5477C82.0362 37.9646 82.55 36.136 82.8158 34.0619C83.0817 31.9879 83.0459 30.0884 82.7083 28.3635C82.3969 26.642 81.8442 25.1428 81.0501 23.8661C80.2561 22.5894 79.2696 21.5681 78.0909 20.8022C76.9154 20.01 75.595 19.5194 74.1294 19.3303C72.69 19.1446 71.2888 19.2841 69.9256 19.7488C68.592 20.1906 67.3801 20.9283 66.2899 21.9619C65.1997 22.9955 64.2737 24.3039 63.5121 25.887C62.7767 27.4735 62.276 29.3038 62.0102 31.3778C61.7443 33.4519 61.767 35.3497 62.0784 37.0712C62.416 38.7961 62.9818 40.297 63.7758 41.5737C64.5699 42.8504 65.5546 43.8848 66.7301 44.677C67.935 45.4463 69.2572 45.9238 70.6966 46.1094C72.1621 46.2985 73.5617 46.1722 74.8953 45.7304C76.2323 45.2623 77.4459 44.5115 78.5361 43.4779C79.6263 42.4442 80.5392 41.1342 81.2746 39.5477ZM70.7756 44.7335C75.2592 45.3119 79.5808 40.4222 80.4281 33.812C81.2755 27.2019 78.3278 21.3744 73.8442 20.796C69.3606 20.2176 65.0391 25.1073 64.1917 31.7174C63.3444 38.3276 66.2921 44.1551 70.7756 44.7335Z" fill="#1A1E20"/>
</svg>
