<svg width="30" height="30" viewBox="0 0 30 30" fill="none" xmlns="http://www.w3.org/2000/svg">
<circle cx="14.6445" cy="14.6445" r="14.6445" fill="white"/>
<path d="M14.4653 5.56152L10.7578 10.9506L14.4653 16.3132L18.1728 10.9506L14.4653 5.56152Z" fill="#1A1E20"/>
<path d="M14.4653 5.56152L10.7578 10.9506L14.4653 16.3132L18.1728 10.9506L14.4653 5.56152Z" fill="black" fill-opacity="0.2"/>
<path d="M14.4653 5.56152L10.7578 10.9506L14.4653 16.3132L18.1728 10.9506L14.4653 5.56152Z" fill="black" fill-opacity="0.2"/>
<path d="M14.4653 5.56152L10.7578 10.9506L14.4653 16.3132L18.1728 10.9506L14.4653 5.56152Z" fill="black" fill-opacity="0.2"/>
<path d="M25.9594 14.459C25.9594 20.6017 20.8967 25.5814 14.6516 25.5814C8.40643 25.5814 3.34375 20.6017 3.34375 14.459" stroke="#1A1E20" stroke-width="0.770765" stroke-linecap="round"/>
<path d="M25.9594 14.459C25.9594 20.6017 20.8967 25.5814 14.6516 25.5814C8.40643 25.5814 3.34375 20.6017 3.34375 14.459" stroke="black" stroke-opacity="0.2" stroke-width="0.770765" stroke-linecap="round"/>
<path d="M25.9594 14.459C25.9594 20.6017 20.8967 25.5814 14.6516 25.5814C8.40643 25.5814 3.34375 20.6017 3.34375 14.459" stroke="black" stroke-opacity="0.2" stroke-width="0.770765" stroke-linecap="round"/>
<path d="M25.9594 14.459C25.9594 20.6017 20.8967 25.5814 14.6516 25.5814C8.40643 25.5814 3.34375 20.6017 3.34375 14.459" stroke="black" stroke-opacity="0.2" stroke-width="0.770765" stroke-linecap="round"/>
</svg>
