<svg width="1120" height="80" viewBox="0 0 1120 80" fill="none" xmlns="http://www.w3.org/2000/svg">
<g clip-path="url(#clip0_7449_15117)">
<path d="M104.823 0.0128509L289.684 0.0128546C305.904 0.0128549 325.949 29.9184 338.375 40.3452C325.893 50.4963 306.585 79.9746 290.497 79.9746L104.088 79.9746C87.7714 79.9746 68.5916 50.721 55.9989 40.3452C67.998 29.926 88.9317 0.0128506 104.823 0.0128509Z" fill="#286BAE"/>
<path d="M348.439 0.000207492L609.7 0.000441532C625.779 0.000457108 646.482 30.2436 659 40.3332C646.429 50.1529 626.474 79.9629 610.522 79.9628L347.702 79.9626C331.515 79.9626 311.691 50.3779 298.998 40.3328C311.088 30.2494 332.695 0.000191923 348.439 0.000207492Z" fill="#286BAE"/>
<path d="M491.088 0.000481749L771.568 0.000487286C787.406 0.000487598 809.343 30.8122 822 40.3332C809.296 49.5947 788.126 79.9629 772.405 79.9629L490.349 79.9629C474.38 79.9629 453.344 49.8203 440.5 40.3332C452.726 30.8162 475.594 0.000481443 491.088 0.000481749Z" fill="#286BAE"/>
<path d="M831.448 0.0128513L1016.31 0.0128547C1032.53 0.0128549 1052.57 29.9184 1065 40.3452C1052.52 50.4963 1033.21 79.9746 1017.12 79.9746L830.713 79.9746C814.396 79.9746 795.217 50.721 782.624 40.3452C794.623 29.926 815.557 0.012851 831.448 0.0128513Z" fill="#286BAE"/>
<path d="M85 -20L32.3386 39.519L85 100H0V-20H85Z" fill="#F9A7D8"/>
<path d="M1035 -20L1087.66 39.519L1035 100H1120V-20H1035Z" fill="#F9A7D8"/>
</g>
<defs>
<clipPath id="clip0_7449_15117">
<rect width="1120" height="80" rx="8" fill="white"/>
</clipPath>
</defs>
</svg>
