<svg width="1120" height="80" viewBox="0 0 1120 80" fill="none" xmlns="http://www.w3.org/2000/svg">
<g clip-path="url(#clip0_7451_15535)">
<path d="M104.838 0.0128585L289.669 0.0128622C305.898 0.0128625 325.945 29.9278 338.375 40.3629C325.888 50.5222 306.579 80.0098 290.482 80.0098L104.103 80.0098C87.7775 80.0098 68.596 50.7469 55.9989 40.3629C68.0022 29.9355 88.938 0.0128582 104.838 0.0128585Z" fill="#3C8C37"/>
<path d="M348.456 0.000489432L627.185 0.000494937C643.272 0.000495254 663.977 30.2533 676.5 40.3509C663.924 50.1785 643.968 79.998 628.007 79.998L347.719 79.998C331.523 79.998 311.698 50.404 299 40.3509C311.095 30.2594 332.704 0.000489121 348.456 0.000489432Z" fill="#3C8C37"/>
<path d="M490.103 0.000489356L771.553 0.000494914C787.399 0.000495227 809.338 30.8222 822 40.3509C809.291 49.62 788.121 79.998 772.391 79.998L489.363 79.998C473.386 79.998 452.349 49.8457 439.5 40.3509C451.731 30.8261 474.601 0.00048905 490.103 0.000489356Z" fill="#3C8C37"/>
<path d="M831.463 0.012859L1016.29 0.0128623C1032.52 0.0128626 1052.57 29.9278 1065 40.3629C1052.51 50.5222 1033.2 80.0098 1017.11 80.0098L830.728 80.0098C814.402 80.0098 795.221 50.7469 782.624 40.3629C794.627 29.9355 815.563 0.0128587 831.463 0.012859Z" fill="#3C8C37"/>
<path d="M85 -20L32.3386 39.519L85 100H0V-20H85Z" fill="#F9A7D8"/>
<path d="M1035 -20L1087.66 39.519L1035 100H1120V-20H1035Z" fill="#F9A7D8"/>
</g>
<defs>
<clipPath id="clip0_7451_15535">
<rect width="1120" height="80" rx="8" fill="white"/>
</clipPath>
</defs>
</svg>
