<svg width="331" height="268" viewBox="0 0 331 268" fill="none" xmlns="http://www.w3.org/2000/svg">
<path d="M239.795 11.2543C207.953 10.3024 182.765 4.45739 166.955 -7.17064e-06C146.91 5.47691 121.293 10.5742 91.5879 11.4428C45.1462 12.8008 -2.01905e-06 46.1905 -4.04995e-06 92.652L-7.61464e-06 174.203C-9.66057e-06 221.008 45.8693 254.736 92.6385 256.577C114.435 257.435 139.326 260.705 166.955 268C193.869 260.511 218.391 257.235 240.329 256.543C286.498 255.088 331 222.427 331 176.235L331 92.231C331 45.8971 286.109 12.6387 239.795 11.2543Z" fill="black"/>
</svg>
