<svg width="331" height="268" viewBox="0 0 331 268" fill="none" xmlns="http://www.w3.org/2000/svg">
<path d="M246.261 268C277.162 267.971 302.747 262.636 318.047 258.855C325.587 256.992 331 248.998 331 239.922V28.0779C331 19.0024 325.587 11.0084 318.047 9.145C302.747 5.36392 277.162 0.0286174 246.261 0.000117238C221.843 -0.0224061 194.105 3.26864 165.5 13.2586C136.895 3.26864 109.157 -0.0224078 84.7394 0.000114682C53.8381 0.0286139 28.2528 5.36392 12.9529 9.145C5.41286 11.0084 1.98584e-06 19.0024 1.90426e-06 28.0779L0 239.922C-8.15796e-08 248.998 5.41286 256.992 12.9529 258.855C28.2528 262.636 53.8381 267.971 84.7394 268C109.157 268.022 136.895 264.731 165.5 254.741C194.105 264.731 221.843 268.022 246.261 268Z" fill="black"/>
</svg>
