<svg width="601" height="438" viewBox="0 0 601 438" fill="none" xmlns="http://www.w3.org/2000/svg">
<path d="M601 365.387C601 367.596 599.209 369.387 597 369.387L535.324 369.387C533.115 369.387 531.324 371.178 531.324 373.387L531.324 434C531.324 436.209 529.533 438 527.324 438L74.0644 438C71.8553 438 70.0644 436.209 70.0644 434L70.0644 373.387C70.0644 371.178 68.2736 369.387 66.0644 369.387L3.99998 369.387C1.79084 369.387 -1.60681e-05 367.596 -1.59716e-05 365.387L-3.1742e-06 72.6172C-3.07763e-06 70.408 1.79086 68.6172 4 68.6172L66.0645 68.6172C68.2736 68.6172 70.0645 66.8263 70.0645 64.6172L70.0645 3.99998C70.0645 1.79084 71.8553 -2.31296e-05 74.0645 -2.30331e-05L527.324 -3.22047e-06C529.533 -3.12391e-06 531.324 1.79086 531.324 4L531.324 64.6172C531.324 66.8263 533.115 68.6172 535.324 68.6172L597 68.6172C599.209 68.6172 601 70.408 601 72.6172L601 365.387Z" fill="#FCFBFB"/>
</svg>
