<svg width="311" height="268" viewBox="0 0 311 268" fill="none" xmlns="http://www.w3.org/2000/svg">
<path d="M290.748 185.698L304.491 210.048C314.451 227.695 312.595 249.64 299.814 265.365C298.459 267.032 296.424 268 294.275 268L13.3282 268L18.1907 261.716C25.9869 251.64 29.0599 238.692 26.623 226.188C25.5988 220.933 23.629 215.907 20.8094 211.356L8.21314 191.023C-2.62817 173.523 -0.868764 151.013 12.56 135.41C24.814 121.171 27.4518 101.019 19.2754 84.1069L4.80974 54.1853C-3.40858 37.186 -0.888925 16.9467 11.2465 2.48139C12.5661 0.908451 14.5141 -2.67939e-05 16.5673 -2.66144e-05L297.672 -2.03942e-06C283.696 17.2556 281.705 41.3059 292.652 60.6249L303.701 80.1237C313.398 97.2351 310.777 118.673 297.243 132.944C283.73 147.195 281.095 168.594 290.748 185.698Z" fill="black"/>
</svg>
