<svg width="32" height="32" viewBox="0 0 32 32" fill="none" xmlns="http://www.w3.org/2000/svg">
<mask id="mask0_11544_46569" style="mask-type:alpha" maskUnits="userSpaceOnUse" x="0" y="0" width="32" height="32">
<rect width="32" height="32" fill="#D9D9D9"/>
</mask>
<g mask="url(#mask0_11544_46569)">
<path d="M15.1792 26C14.8441 26 14.5638 25.8871 14.3382 25.6613C14.1124 25.4358 13.9995 25.1554 13.9995 24.8203V17.1027L6.53554 7.62067C6.27909 7.27867 6.24187 6.92311 6.42387 6.554C6.60609 6.18467 6.91343 6 7.34587 6H24.6532C25.0856 6 25.393 6.18467 25.5752 6.554C25.7572 6.92311 25.72 7.27867 25.4635 7.62067L17.9995 17.1027V24.8203C17.9995 25.1554 17.8867 25.4358 17.6609 25.6613C17.4353 25.8871 17.155 26 16.8199 26H15.1792ZM15.9995 16.4L22.5995 8H9.39954L15.9995 16.4Z" fill="#1C1B1F"/>
</g>
</svg>
