<svg width="24" height="24" viewBox="0 0 24 24" fill="none" xmlns="http://www.w3.org/2000/svg">
<mask id="mask0_12732_45508" style="mask-type:alpha" maskUnits="userSpaceOnUse" x="0" y="0" width="24" height="24">
<rect width="24" height="24" fill="#D9D9D9"/>
</mask>
<g mask="url(#mask0_12732_45508)">
<path d="M16.627 12.7529H5.25C5.03717 12.7529 4.859 12.6811 4.7155 12.5374C4.57183 12.3939 4.5 12.2158 4.5 12.0029C4.5 11.7901 4.57183 11.6119 4.7155 11.4684C4.859 11.3248 5.03717 11.2529 5.25 11.2529H16.627L11.4577 6.08369C11.3091 5.93502 11.2357 5.76102 11.2375 5.56169C11.2395 5.36235 11.318 5.1851 11.473 5.02994C11.6282 4.8851 11.8038 4.8101 12 4.80494C12.1962 4.79977 12.3718 4.87477 12.527 5.02994L18.8673 11.3702C18.9609 11.4639 19.0269 11.5626 19.0652 11.6664C19.1037 11.7703 19.123 11.8824 19.123 12.0029C19.123 12.1234 19.1037 12.2356 19.0652 12.3394C19.0269 12.4433 18.9609 12.542 18.8673 12.6357L12.527 18.9759C12.3885 19.1144 12.217 19.1853 12.0125 19.1884C11.808 19.1916 11.6282 19.1208 11.473 18.9759C11.318 18.8208 11.2405 18.6426 11.2405 18.4414C11.2405 18.2401 11.318 18.0619 11.473 17.9067L16.627 12.7529Z" fill="#171A1C"/>
</g>
</svg>
