<svg width="32" height="32" viewBox="0 0 32 32" fill="none" xmlns="http://www.w3.org/2000/svg">
<mask id="mask0_9553_19323" style="mask-type:alpha" maskUnits="userSpaceOnUse" x="0" y="0" width="32" height="32">
<rect width="32" height="32" fill="#D9D9D9"/>
</mask>
<g mask="url(#mask0_9553_19323)">
<path d="M15.9973 25.6923C15.5904 25.6923 15.2429 25.5474 14.9549 25.2576C14.6669 24.9678 14.5229 24.6195 14.5229 24.2126C14.5229 23.8057 14.6678 23.4568 14.9576 23.166C15.2474 22.8753 15.5957 22.73 16.0026 22.73C16.4095 22.73 16.7569 22.8757 17.0449 23.1673C17.3329 23.4586 17.4769 23.8091 17.4769 24.2186C17.4769 24.6255 17.3321 24.9728 17.0423 25.2606C16.7525 25.5484 16.4042 25.6923 15.9973 25.6923ZM15.9973 17.477C15.5904 17.477 15.2429 17.3321 14.9549 17.0423C14.6669 16.7525 14.5229 16.4042 14.5229 15.9973C14.5229 15.5904 14.6678 15.243 14.9576 14.955C15.2474 14.667 15.5957 14.523 16.0026 14.523C16.4095 14.523 16.7569 14.6678 17.0449 14.9576C17.3329 15.2474 17.4769 15.5957 17.4769 16.0026C17.4769 16.4095 17.3321 16.757 17.0423 17.045C16.7525 17.333 16.4042 17.477 15.9973 17.477ZM15.9973 9.26995C15.5904 9.26995 15.2429 9.12417 14.9549 8.83262C14.6669 8.54128 14.5229 8.19084 14.5229 7.78128C14.5229 7.3744 14.6678 7.02706 14.9576 6.73928C15.2474 6.45151 15.5957 6.30762 16.0026 6.30762C16.4095 6.30762 16.7569 6.45251 17.0449 6.74229C17.3329 7.03206 17.4769 7.3804 17.4769 7.78728C17.4769 8.19417 17.3321 8.54306 17.0423 8.83395C16.7525 9.12462 16.4042 9.26995 15.9973 9.26995Z" fill="#2E3538"/>
</g>
</svg>
