<svg width="32" height="32" viewBox="0 0 32 32" fill="none" xmlns="http://www.w3.org/2000/svg">
<g clip-path="url(#clip0_12689_50702)">
<mask id="mask0_12689_50702" style="mask-type:alpha" maskUnits="userSpaceOnUse" x="0" y="0" width="32" height="32">
<path d="M32 0H0V32H32V0Z" fill="#D9D9D9"/>
</mask>
<g mask="url(#mask0_12689_50702)">
<path d="M6.30868 15.9978C6.30868 15.5909 6.45358 15.2434 6.74338 14.9554C7.03318 14.6674 7.38148 14.5234 7.78838 14.5234C8.19528 14.5234 8.54418 14.6683 8.83498 14.9581C9.12568 15.2479 9.27098 15.5962 9.27098 16.0031C9.27098 16.41 9.12528 16.7574 8.83368 17.0454C8.54238 17.3334 8.19188 17.4774 7.78238 17.4774C7.37548 17.4774 7.02818 17.3326 6.74038 17.0428C6.45258 16.753 6.30868 16.4047 6.30868 15.9978ZM14.524 15.9978C14.524 15.5909 14.6689 15.2434 14.9587 14.9554C15.2485 14.6674 15.5968 14.5234 16.0037 14.5234C16.4106 14.5234 16.758 14.6683 17.046 14.9581C17.334 15.2479 17.478 15.5962 17.478 16.0031C17.478 16.41 17.3332 16.7574 17.0434 17.0454C16.7536 17.3334 16.4053 17.4774 15.9984 17.4774C15.5915 17.4774 15.244 17.3326 14.956 17.0428C14.668 16.753 14.524 16.4047 14.524 15.9978ZM22.731 15.9978C22.731 15.5909 22.8768 15.2434 23.1684 14.9554C23.4597 14.6674 23.8101 14.5234 24.2197 14.5234C24.6266 14.5234 24.9739 14.6683 25.2617 14.9581C25.5495 15.2479 25.6934 15.5962 25.6934 16.0031C25.6934 16.41 25.5485 16.7574 25.2587 17.0454C24.9689 17.3334 24.6206 17.4774 24.2137 17.4774C23.8068 17.4774 23.4579 17.3326 23.167 17.0428C22.8764 16.753 22.731 16.4047 22.731 15.9978Z" fill="#2E3538"/>
</g>
</g>
<defs>
<clipPath id="clip0_12689_50702">
<rect width="32" height="32" fill="white"/>
</clipPath>
</defs>
</svg>
