<svg width="24" height="24" viewBox="0 0 24 24" fill="none" xmlns="http://www.w3.org/2000/svg">
<mask id="mask0_9819_26814" style="mask-type:alpha" maskUnits="userSpaceOnUse" x="0" y="0" width="24" height="24">
<rect width="24" height="24" fill="#D9D9D9"/>
</mask>
<g mask="url(#mask0_9819_26814)">
<path d="M11.5 1.5L17.1923 7.19233L15.787 8.63833L12.5 5.35133V16.5513H10.5V5.35133L7.213 8.63833L5.80767 7.19233L11.5 1.5ZM3.91033 21.5C3.23678 21.5 2.66667 21.2667 2.2 20.8C1.73333 20.3333 1.5 19.7632 1.5 19.0897V15.4743H3.5V19.0897C3.5 19.1923 3.54278 19.2863 3.62833 19.3717C3.71367 19.4572 3.80767 19.5 3.91033 19.5H19.0897C19.1923 19.5 19.2863 19.4572 19.3717 19.3717C19.4572 19.2863 19.5 19.1923 19.5 19.0897V15.4743H21.5V19.0897C21.5 19.7632 21.2667 20.3333 20.8 20.8C20.3333 21.2667 19.7632 21.5 19.0897 21.5H3.91033Z" fill="#171A1C"/>
</g>
</svg>
