<svg width="24" height="24" viewBox="0 0 24 24" fill="none" xmlns="http://www.w3.org/2000/svg">
<path d="M20.5864 4.06538L2.51944 10.7771C2.50869 10.7811 2.49827 10.7858 2.48827 10.7913C2.34177 10.871 1.31934 11.4713 2.76102 12.0096L2.77583 12.0148L7.07788 13.3491C7.1107 13.3593 7.14545 13.3626 7.17971 13.3586C7.21397 13.3546 7.2469 13.3434 7.2762 13.3259L17.9466 6.93477C17.9727 6.9191 18.0019 6.90855 18.0323 6.90373C18.1807 6.88016 18.6082 6.83602 18.3378 7.16557C18.0319 7.53962 10.7436 13.8096 9.93474 14.5049C9.88809 14.5451 9.85923 14.601 9.85408 14.6609L9.50106 18.7007C9.50102 18.7419 9.51096 18.7825 9.5301 18.8193C9.54924 18.8561 9.57705 18.8881 9.61133 18.9128C9.65997 18.9422 9.71717 18.9559 9.77449 18.9517C9.83181 18.9475 9.88621 18.9258 9.92967 18.8896L12.4857 16.6965C12.5261 16.6619 12.5776 16.6416 12.6317 16.6389C12.6858 16.6363 12.7392 16.6515 12.783 16.682L17.2425 19.7904L17.2569 19.7997C17.3648 19.8637 18.5306 20.5149 18.8673 19.0606L21.9455 5.00913C21.9498 4.96462 21.9915 4.47535 21.6271 4.1862C21.2445 3.88396 20.7029 4.03658 20.6215 4.05304C20.6095 4.05625 20.5977 4.06038 20.5864 4.06538Z" fill="black" fill-opacity="0.76"/>
</svg>
