<svg width="32" height="32" viewBox="0 0 32 32" fill="none" xmlns="http://www.w3.org/2000/svg">
<mask id="path-1-inside-1_9956_57142" fill="white">
<path d="M16 0L32 16L16 32L0 16L16 0Z"/>
</mask>
<path d="M16 0L17.4142 -1.41421L16 -2.82843L14.5858 -1.41421L16 0ZM32 16L33.4142 17.4142L34.8284 16L33.4142 14.5858L32 16ZM16 32L14.5858 33.4142L16 34.8284L17.4142 33.4142L16 32ZM0 16L-1.41421 14.5858L-2.82843 16L-1.41421 17.4142L0 16ZM14.5858 1.41421L30.5858 17.4142L33.4142 14.5858L17.4142 -1.41421L14.5858 1.41421ZM30.5858 14.5858L14.5858 30.5858L17.4142 33.4142L33.4142 17.4142L30.5858 14.5858ZM17.4142 30.5858L1.41421 14.5858L-1.41421 17.4142L14.5858 33.4142L17.4142 30.5858ZM1.41421 17.4142L17.4142 1.41421L14.5858 -1.41421L-1.41421 14.5858L1.41421 17.4142Z" fill="#ABB5BA" mask="url(#path-1-inside-1_9956_57142)"/>
</svg>
